<svg version="1.1" xmlns="http://www.w3.org/2000/svg" xmlns:xlink="http://www.w3.org/1999/xlink" role="img" width="578" height="89" viewBox="0 0 578 89"><title>axios plugin </title><desc>Generated by logo.svg, https://github.com/bubkoo/logo.svg</desc><path fill="#cb3837" d="M1 21.20L58.60 21.20L58.60 78.80L1 78.80L1 21.20M10.60 30.80L10.60 69.20L49 69.20L49 30.80L10.60 30.80M20.20 40.40L29.80 40.40L29.80 59.60L20.20 59.60L20.20 40.40ZM116.20 21.20L116.20 78.80L49 78.80L49 21.20L116.20 21.20M58.60 30.80L58.60 40.40L68.20 40.40L68.20 50L58.60 50L58.60 69.20L77.80 69.20L77.80 50L87.40 50L87.40 69.20L106.60 69.20L106.60 50L97 50L97 40.40L106.60 40.40L106.60 30.80L87.40 30.80L87.40 40.40L77.80 40.40L77.80 30.80L58.60 30.80ZM145 11.60L145 78.80L106.60 78.80L106.60 11.60L145 11.60M116.20 21.20L116.20 30.80L135.40 30.80L135.40 21.20L116.20 21.20M116.20 40.40L116.20 69.20L135.40 69.20L135.40 40.40L116.20 40.40ZM193 21.20L193 78.80L135.40 78.80L135.40 21.20L193 21.20M145 30.80L145 69.20L183.40 69.20L183.40 30.80L145 30.80M164.20 40.40L173.80 40.40L173.80 59.60L164.20 59.60L164.20 40.40ZM241 21.20L241 78.80L183.40 78.80L183.40 21.20L241 21.20M193 30.80L193 50L212.20 50L212.20 59.60L193 59.60L193 69.20L231.40 69.20L231.40 50L221.80 50L221.80 40.40L231.40 40.40L231.40 30.80L193 30.80ZM337 21.20L337 78.80L317.80 78.80L317.80 88.40L279.40 88.40L279.40 21.20L337 21.20M289 30.80L289 78.80L308.20 78.80L308.20 69.20L327.40 69.20L327.40 30.80L289 30.80M308.20 40.40L317.80 40.40L317.80 59.60L308.20 59.60L308.20 40.40ZM365.80 11.60L365.80 78.80L327.40 78.80L327.40 11.60L365.80 11.60M337 21.20L337 69.20L356.20 69.20L356.20 21.20L337 21.20ZM413.80 21.20L413.80 78.80L356.20 78.80L356.20 21.20L413.80 21.20M365.80 30.80L365.80 69.20L404.20 69.20L404.20 30.80L394.60 30.80L394.60 59.60L385 59.60L385 30.80L365.80 30.80ZM413.80 30.80L413.80 69.20L423.40 69.20L423.40 78.80L442.60 78.80L442.60 69.20L452.20 69.20L452.20 30.80L413.80 30.80M423.40 40.40L433 40.40L433 59.60L423.40 59.60L423.40 40.40M404.20 78.80L404.20 21.20L461.80 21.20L461.80 78.80L452.20 78.80L452.20 88.40L413.80 88.40L413.80 78.80L404.20 78.80ZM490.60 11.60L490.60 78.80L452.20 78.80L452.20 11.60L490.60 11.60M461.80 21.20L461.80 30.80L481 30.80L481 21.20L461.80 21.20M461.80 40.40L461.80 69.20L481 69.20L481 40.40L461.80 40.40ZM538.60 21.20L538.60 78.80L481 78.80L481 21.20L538.60 21.20M490.60 30.80L490.60 69.20L509.80 69.20L509.80 40.40L519.40 40.40L519.40 69.20L529 69.20L529 30.80L490.60 30.80Z"></path></svg>